<svg xmlns="http://www.w3.org/2000/svg" viewBox="0 0 48 30" class="disabled-checkout"><path style="fill:#656A78" d="M36.8 1h-30c-1.7 0-3 1.3-3 3v20c0 1.7 1.3 3 3 3h24.8c-0.1-0.1-0.1-0.1-0.2-0.2 -0.6-0.6-1-1.2-1.4-1.8H6.8c-0.5 0-1-0.5-1-1V12h32v2.1c0.7 0.1 1.4 0.3 2 0.6V4C39.8 2.3 38.5 1 36.8 1zM37.8 6h-32V4c0-0.5 0.5-1 1-1h30c0.5 0 1 0.5 1 1V6z"/><path style="fill:#FA5A6A" d="M36.7 14c2.1 0 3.8 0.7 5.3 2.2s2.2 3.2 2.2 5.3 -0.7 3.8-2.2 5.3S38.8 29 36.7 29s-3.8-0.7-5.3-2.2c-1.5-1.5-2.2-3.2-2.2-5.3s0.7-3.8 2.2-5.3C32.9 14.7 34.6 14 36.7 14zM37.4 22.2v-4.5h-1.5v4.5H37.4zM37.4 25.3v-1.5h-1.5v1.5H37.4z"/></svg>