<svg xmlns="http://www.w3.org/2000/svg" viewBox="0 0 100 100" class="error-line"><g data-name="Layer 2"><g data-name="Layer 1"><path d="M50 10a39.9 39.9 0 0 1 15.3 2.9 40.1 40.1 0 0 1 12.9 8.8 40.1 40.1 0 0 1 8.8 12.9A39.7 39.7 0 0 1 90 50a39.9 39.9 0 0 1-2.9 15.3 40.2 40.2 0 0 1-8.8 12.9 40.3 40.3 0 0 1-13 8.8A39.6 39.6 0 0 1 50 90a39.9 39.9 0 0 1-15.3-2.9 39.8 39.8 0 0 1-12.9-8.8 40.4 40.4 0 0 1-8.8-12.9A39.6 39.6 0 0 1 10 50a40 40 0 0 1 2.9-15.3 39.8 39.8 0 0 1 8.8-12.9 40.1 40.1 0 0 1 12.9-8.8A39.8 39.8 0 0 1 50 10ZM50 0A48.4 48.4 0 0 0 14.7 14.7 48.4 48.4 0 0 0 0 50 48.4 48.4 0 0 0 14.7 85.3 48.3 48.3 0 0 0 50 100 48.4 48.4 0 0 0 85.3 85.3 48.3 48.3 0 0 0 100 50 48.4 48.4 0 0 0 85.3 14.7 48.3 48.3 0 0 0 50 0h0Z"/><path d="M55 55V24.8H45V55Zm0 20.3V65.1H45V75.3Z"/></g></g></svg>